# xmcd
#
# Track frame offsets: 
#        150
#        18273
#        35888
#        45772
#        68125
#        80945
#        91938
#        99989
#        131212
#        154302
#        174500
#        215834
#        222349
#        228030
#        238045
#        248673
#        259560
#        264558
#
# Disc length: 3666 seconds
#
# Revision: 0
# Processed by: cddbd v1.5.2PL0 Copyright (c) Steve Scherf et al.
# Submitted via: ExactAudioCopy v0.99pb4
#
DISCID=f70e5012
DTITLE=Kymi Sinfonietta - Juha Nikkola and Jorma Hynninen - Klami Rhapso
DTITLE=die
DYEAR=1900
DGENRE=Classical
TTITLE0=Uuno Klami - Intermezzo - Englannintorvisoolo
TTITLE1=Uuno Klami - Musiikkia näytelmään Tuhlaripoika - I näytöksen al
TTITLE1=kusoitto
TTITLE2=Uuno Klami - Musiikkia näytelmään Tuhlaripoika - Madrigali
TTITLE3=Uuno Klami - Musiikkia näytelmään Tuhlaripoika - II näytöksen a
TTITLE3=lkusoitto
TTITLE4=Uuno Klami - Musiikkia näytelmään Tuhlaripoika - Serenaadi
TTITLE5=Uuno Klami - Musiikkia näytelmään Tuhlaripoika - III näytöksen 
TTITLE5=alkusoitto
TTITLE6=Uuno Klami - Musiikkia näytelmään Tuhlaripoika - Mardigali II
TTITLE7=Uuno Klami - Symphonic enfantine - I Poco agitato
TTITLE8=Uuno Klami - Symphonic enfantine - II Berceuse (andante)
TTITLE9=Uuno Klami - Symphonic enfantine - III Molto vivo
TTITLE10=Eero Kesti - Fantasia orkesterille "Kevät"
TTITLE11=Toivo Kuula - Eteläpohjalaisia kansanlauluja II ;Poijat ne ku
TTITLE11=lkee kyliä
TTITLE12=Toivo Kuula - Eteläpohjalaisia kansanlauluja II  - Tuoltapa nä
TTITLE12=kyy se punainen talo
TTITLE13=Toivo Kuula - Eteläpohjalaisia kansanlauluja II  - Hautalan He
TTITLE13=ikki
TTITLE14=Toivo Kuula - Eteläpohjalaisia kansanlauluja II  - Tuuli se ta
TTITLE14=ivutti koivun larvan
TTITLE15=Toivo Kuula - Eteläpohjalaisia kansanlauluja II  - Ketolan Juk
TTITLE15=ka
TTITLE16=Toivo Kuula - Eteläpohjalaisia kansanlauluja II  - Hae pois va
TTITLE16=an sormukses
TTITLE17=Toivo Kuula - Eteläpohjalaisia kansanlauluja II  - Luullahan j
TTITLE17=otta on lysti olla
EXTD=
EXTT0=
EXTT1=
EXTT2=
EXTT3=
EXTT4=
EXTT5=
EXTT6=
EXTT7=
EXTT8=
EXTT9=
EXTT10=
EXTT11=
EXTT12=
EXTT13=
EXTT14=
EXTT15=
EXTT16=
EXTT17=
PLAYORDER=
